<?xml version="1.0" encoding="UTF-8"?>
<svg version="1.1" xmlns="http://www.w3.org/2000/svg" width="48" height="48">
<path d="M0 0 C3.31804319 1.33100211 5.48261708 3.48261708 8 6 C9.11375 6.433125 10.2275 6.86625 11.375 7.3125 C15.36802248 9.17132081 16.93877085 10.1248892 19 14 C19.73712466 18.15849573 19.93896877 22.08358014 18.046875 25.9453125 C15.37422022 29.44682858 13.18741355 30.32095997 9 31 C7.8326371 32.98030072 7.8326371 32.98030072 7 35 C6.38511719 34.97679687 5.77023438 34.95359375 5.13671875 34.9296875 C4.32847656 34.91164062 3.52023438 34.89359375 2.6875 34.875 C1.88699219 34.85179687 1.08648438 34.82859375 0.26171875 34.8046875 C-2.28388576 34.84182678 -2.28388576 34.84182678 -5 37 C-9.61848457 37.74380089 -13.04470258 37.58487597 -17.0625 35.125 C-19 33 -19 33 -19 31 C-20.093125 30.9175 -21.18625 30.835 -22.3125 30.75 C-26 30 -26 30 -27.9375 28.5 C-29.56975372 24.659403 -29.80182989 21.09662181 -29 17 C-26.625 13.9375 -26.625 13.9375 -24 12 C-23.34 12 -22.68 12 -22 12 C-21.79375 11.113125 -21.5875 10.22625 -21.375 9.3125 C-17.47463309 -0.08383846 -9.1499641 -0.89588421 0 0 Z " fill="#128BE3" transform="translate(29,7)"/>
<path d="M0 0 C3.68266103 0.59950296 7.34543185 1.24758891 11 2 C11 1.34 11 0.68 11 0 C15.21878192 -0.19622241 18.17010894 0.19769832 22 2 C22 2.99 22 3.98 22 5 C14.41 5 6.82 5 -1 5 C-0.67 3.35 -0.34 1.7 0 0 Z " fill="#094774" transform="translate(7,24)"/>
<path d="M0 0 C0.99 0.33 1.98 0.66 3 1 C3 1.99 3 2.98 3 4 C3.66 4 4.32 4 5 4 C5 3.34 5 2.68 5 2 C6.32 2 7.64 2 9 2 C9 2.99 9 3.98 9 5 C4.38 5 -0.24 5 -5 5 C-4.67 3.68 -4.34 2.36 -4 1 C-2.02 1.495 -2.02 1.495 0 2 C0 1.34 0 0.68 0 0 Z " fill="#043961" transform="translate(35,24)"/>
<path d="M0 0 C2.97 0.495 2.97 0.495 6 1 C5.01 1.495 5.01 1.495 4 2 C4 2.99 4 3.98 4 5 C2.35 5 0.7 5 -1 5 C-0.67 3.35 -0.34 1.7 0 0 Z " fill="#0E5485" transform="translate(7,24)"/>
<path d="M0 0 C0.33 1.32 0.66 2.64 1 4 C-1.64 4 -4.28 4 -7 4 C-7 3.01 -7 2.02 -7 1 C-3.535 0.505 -3.535 0.505 0 0 Z " fill="#07314F" transform="translate(18,25)"/>
</svg>
